<svg width="204" height="104" viewBox="0 0 204 104" fill="none" xmlns="http://www.w3.org/2000/svg">
<rect width="203.242" height="103.569" fill="none"/>
<path fill-rule="evenodd" clip-rule="evenodd" d="M123.244 14.3313C109.464 28.2414 100.638 44.0293 92.5663 58.4688C80.3602 80.3033 69.8779 99.0544 46.5967 103.567C60.2025 88.8646 70.293 71.3521 79.7034 55.0199C90.5849 36.1344 100.557 18.827 114.004 9.26707C150.348 -16.4579 203.035 14.8386 166.785 60.6218L151.862 59.0064C178.976 32.7677 152.583 -15.143 123.244 14.3313ZM91.7725 1.57205C68.6245 17.8974 56.6246 39.3985 45.9459 58.5324C33.7692 80.3502 23.3103 99.0901 0 103.569C13.5707 88.8905 23.6506 71.4072 33.054 55.0972C49.6063 26.3877 64.0626 1.31349 91.7725 1.57205ZM195.716 17.1487L195.725 17.0664C196.268 18.9124 196.872 20.8443 197.495 22.838C200.259 31.6735 203.402 41.7237 203.236 50.8942C202.729 81.9903 185.472 108.73 148.112 84.9273L136.54 99.918L118.47 98.805L145.878 66.1917L161.919 68.3179C157.352 77.1314 161.717 87.058 168.112 88.9819C186.839 94.5379 194.567 27.1667 195.716 17.1487Z" fill="#1d4ed8"/>
</svg>
